<?xml version="1.0" encoding="UTF-8"?>
<svg width="1016px" height="295px" viewBox="0 0 1016 295" version="1.1" xmlns="http://www.w3.org/2000/svg" xmlns:xlink="http://www.w3.org/1999/xlink">
    <title>画板</title>
    <g id="画板" stroke="none" stroke-width="1" fill="none" fill-rule="evenodd">
        <g id="下载" transform="translate(0.000000, 34.000000)" fill-rule="nonzero">
            <g id="编组" fill="#48867B">
                <path d="M221.321273,0 L3.75120802,0 C1.68054119,0 0,1.68054119 0,3.75120802 L0,221.321273 C0,223.39194 1.68054119,225.072481 3.75120802,225.072481 L221.321273,225.072481 C223.39194,225.072481 225.072481,223.39194 225.072481,221.321273 L225.072481,3.75120802 C225.072481,1.68054119 223.39194,0 221.321273,0 Z M7.50241605,150.048321 L7.50241605,110.82569 L73.5386821,140.426472 C72.4845926,143.491209 71.7643607,146.705995 71.4605129,150.04457 L7.50241605,150.04457 L7.50241605,150.048321 Z M76.6034191,133.580518 L7.50241605,102.603042 L7.50241605,50.5400257 L81.3149363,126.899616 C79.5368637,128.959029 77.9538539,131.194749 76.6034191,133.580518 Z M112.536241,120.038657 C129.881827,120.038657 144.200188,133.194143 146.075792,150.048321 L78.9966898,150.048321 C80.8722938,133.194143 95.1906548,120.038657 112.536241,120.038657 Z M116.287449,112.727552 L116.287449,7.50241605 L170.634951,7.50241605 L125.151553,114.524381 C122.31564,113.612837 119.352186,113.005142 116.287449,112.727552 Z M108.785033,112.727552 C105.720296,113.005142 102.756841,113.612837 99.9209281,114.528132 L54.4375308,7.50241605 L108.785033,7.50241605 L108.785033,112.727552 Z M153.608217,150.048321 C153.30437,146.709746 152.584138,143.494961 151.530048,140.430224 L217.570065,110.82569 L217.570065,150.048321 L153.608217,150.048321 Z M217.570065,102.603042 L148.469062,133.580518 C147.118627,131.194749 145.539369,128.959029 143.757545,126.899616 L217.570065,50.5400257 L217.570065,102.603042 Z M217.570065,39.7478002 L138.374562,121.674183 C136.405177,120.087422 134.296998,118.669466 132.057527,117.457826 L178.790077,7.50241605 L217.570065,7.50241605 L217.570065,39.7478002 Z M46.2824046,7.50241605 L93.0149542,117.461577 C90.775483,118.669466 88.6673041,120.091174 86.6979198,121.677935 L7.50241605,39.7478002 L7.50241605,7.50241605 L46.2824046,7.50241605 Z M7.50241605,217.570065 L7.50241605,157.550737 L217.570065,157.550737 L217.570065,217.570065 L7.50241605,217.570065 Z" id="形状"></path>
                <path d="M41.2632883,165.053153 L18.7560401,165.053153 C16.6853733,165.053153 15.0048321,166.733694 15.0048321,168.804361 C15.0048321,170.875028 16.6853733,172.555569 18.7560401,172.555569 L41.2632883,172.555569 C43.3339551,172.555569 45.0144963,170.875028 45.0144963,168.804361 C45.0144963,166.733694 43.3339551,165.053153 41.2632883,165.053153 Z" id="路径"></path>
                <path d="M82.5265765,165.053153 L60.0193284,165.053153 C57.9486616,165.053153 56.2681204,166.733694 56.2681204,168.804361 C56.2681204,170.875028 57.9486616,172.555569 60.0193284,172.555569 L82.5265765,172.555569 C84.5972434,172.555569 86.2777846,170.875028 86.2777846,168.804361 C86.2777846,166.733694 84.5972434,165.053153 82.5265765,165.053153 Z" id="路径"></path>
                <path d="M123.789865,165.053153 L101.282617,165.053153 C99.2119498,165.053153 97.5314086,166.733694 97.5314086,168.804361 C97.5314086,170.875028 99.2119498,172.555569 101.282617,172.555569 L123.789865,172.555569 C125.860532,172.555569 127.541073,170.875028 127.541073,168.804361 C127.541073,166.733694 125.860532,165.053153 123.789865,165.053153 Z" id="路径"></path>
                <path d="M165.053153,165.053153 L142.545905,165.053153 C140.475238,165.053153 138.794697,166.733694 138.794697,168.804361 C138.794697,170.875028 140.475238,172.555569 142.545905,172.555569 L165.053153,172.555569 C167.12382,172.555569 168.804361,170.875028 168.804361,168.804361 C168.804361,166.733694 167.12382,165.053153 165.053153,165.053153 Z" id="路径"></path>
                <path d="M206.316441,165.053153 L183.809193,165.053153 C181.738526,165.053153 180.057985,166.733694 180.057985,168.804361 C180.057985,170.875028 181.738526,172.555569 183.809193,172.555569 L206.316441,172.555569 C208.387108,172.555569 210.067649,170.875028 210.067649,168.804361 C210.067649,166.733694 208.387108,165.053153 206.316441,165.053153 Z" id="路径"></path>
                <path d="M41.2632883,183.809193 L18.7560401,183.809193 C16.6853733,183.809193 15.0048321,185.489734 15.0048321,187.560401 C15.0048321,189.631068 16.6853733,191.311609 18.7560401,191.311609 L41.2632883,191.311609 C43.3339551,191.311609 45.0144963,189.631068 45.0144963,187.560401 C45.0144963,185.489734 43.3339551,183.809193 41.2632883,183.809193 Z" id="路径"></path>
                <path d="M82.5265765,183.809193 L60.0193284,183.809193 C57.9486616,183.809193 56.2681204,185.489734 56.2681204,187.560401 C56.2681204,189.631068 57.9486616,191.311609 60.0193284,191.311609 L82.5265765,191.311609 C84.5972434,191.311609 86.2777846,189.631068 86.2777846,187.560401 C86.2777846,185.489734 84.5972434,183.809193 82.5265765,183.809193 Z" id="路径"></path>
                <path d="M123.789865,183.809193 L101.282617,183.809193 C99.2119498,183.809193 97.5314086,185.489734 97.5314086,187.560401 C97.5314086,189.631068 99.2119498,191.311609 101.282617,191.311609 L123.789865,191.311609 C125.860532,191.311609 127.541073,189.631068 127.541073,187.560401 C127.541073,185.489734 125.860532,183.809193 123.789865,183.809193 Z" id="路径"></path>
                <path d="M165.053153,183.809193 L142.545905,183.809193 C140.475238,183.809193 138.794697,185.489734 138.794697,187.560401 C138.794697,189.631068 140.475238,191.311609 142.545905,191.311609 L165.053153,191.311609 C167.12382,191.311609 168.804361,189.631068 168.804361,187.560401 C168.804361,185.489734 167.12382,183.809193 165.053153,183.809193 Z" id="路径"></path>
                <path d="M206.316441,183.809193 L183.809193,183.809193 C181.738526,183.809193 180.057985,185.489734 180.057985,187.560401 C180.057985,189.631068 181.738526,191.311609 183.809193,191.311609 L206.316441,191.311609 C208.387108,191.311609 210.067649,189.631068 210.067649,187.560401 C210.067649,185.489734 208.387108,183.809193 206.316441,183.809193 Z" id="路径"></path>
                <path d="M41.2632883,202.565233 L18.7560401,202.565233 C16.6853733,202.565233 15.0048321,204.245774 15.0048321,206.316441 C15.0048321,208.387108 16.6853733,210.067649 18.7560401,210.067649 L41.2632883,210.067649 C43.3339551,210.067649 45.0144963,208.387108 45.0144963,206.316441 C45.0144963,204.245774 43.3339551,202.565233 41.2632883,202.565233 Z" id="路径"></path>
                <path d="M82.5265765,202.565233 L60.0193284,202.565233 C57.9486616,202.565233 56.2681204,204.245774 56.2681204,206.316441 C56.2681204,208.387108 57.9486616,210.067649 60.0193284,210.067649 L82.5265765,210.067649 C84.5972434,210.067649 86.2777846,208.387108 86.2777846,206.316441 C86.2777846,204.245774 84.5972434,202.565233 82.5265765,202.565233 Z" id="路径"></path>
                <path d="M123.789865,202.565233 L101.282617,202.565233 C99.2119498,202.565233 97.5314086,204.245774 97.5314086,206.316441 C97.5314086,208.387108 99.2119498,210.067649 101.282617,210.067649 L123.789865,210.067649 C125.860532,210.067649 127.541073,208.387108 127.541073,206.316441 C127.541073,204.245774 125.860532,202.565233 123.789865,202.565233 Z" id="路径"></path>
                <path d="M165.053153,202.565233 L142.545905,202.565233 C140.475238,202.565233 138.794697,204.245774 138.794697,206.316441 C138.794697,208.387108 140.475238,210.067649 142.545905,210.067649 L165.053153,210.067649 C167.12382,210.067649 168.804361,208.387108 168.804361,206.316441 C168.804361,204.245774 167.12382,202.565233 165.053153,202.565233 Z" id="路径"></path>
                <path d="M206.316441,202.565233 L183.809193,202.565233 C181.738526,202.565233 180.057985,204.245774 180.057985,206.316441 C180.057985,208.387108 181.738526,210.067649 183.809193,210.067649 L206.316441,210.067649 C208.387108,210.067649 210.067649,208.387108 210.067649,206.316441 C210.067649,204.245774 208.387108,202.565233 206.316441,202.565233 Z" id="路径"></path>
                <circle id="椭圆形" cx="112.536241" cy="138.794697" r="7.50241605"></circle>
            </g>
            <g id="形状" transform="translate(366.000000, 27.000000)" fill="#222222">
                <path d="M22.2606451,131.080835 L22.2606451,131.080835 L21.6992574,133.38293 C21.6992574,133.832119 21.9050996,134.22516 22.3167839,134.562052 C22.7284682,134.936376 23.2150042,135.123538 23.7763919,135.123538 C24.3752054,135.123538 24.8617414,134.842795 25.2359998,134.281309 L25.2359998,134.281309 C36.1269209,119.794956 45.1465497,107.049211 52.2948862,96.0440745 C59.4806485,85.0389381 64.7202669,76.9348155 68.0137413,71.7317068 C71.3446416,66.5660305 74.0018766,62.4484625 75.9854464,59.3790027 L75.9854464,59.3790027 C81.2624907,51.3310288 86.4833961,44.1252847 91.6481628,37.7617704 L91.6481628,37.7617704 C71.9247422,42.7402845 56.467868,45.2295416 45.2775401,45.2295416 C34.0872123,45.2295416 26.0406555,44.5183253 21.1378698,43.0958927 C16.2725098,41.6360276 13.0726,40.0264329 11.5381404,38.2671083 C10.0036807,36.4703514 9.23645086,34.636162 9.23645086,32.7645401 C9.23645086,30.8929183 9.31130255,29.0774451 9.46100594,27.3181206 L9.46100594,27.3181206 C9.72298686,23.6871742 11.9311117,20.6925793 16.0853806,18.3343358 C20.2022236,16.0135247 23.6079756,14.8531192 26.3026364,14.8531192 C29.0347232,14.8531192 30.4007665,15.2461597 30.4007665,16.0322409 C30.4007665,16.8557545 29.7832401,17.9412952 28.5481872,19.2888629 C27.3505601,20.6364306 26.7517466,21.5535253 26.7517466,22.040147 L26.7517466,22.040147 C26.7517466,24.3983905 35.1912748,25.5775123 52.0703311,25.5775123 C68.9493875,25.5775123 88.3546884,23.3502823 110.286234,18.8958223 L110.286234,18.8958223 C122.861318,8.63933465 133.714813,3.51109081 142.84672,3.51109081 L142.84672,3.51109081 C148.947132,3.51109081 152.970411,5.2329829 154.916555,8.67676709 L154.916555,8.67676709 C156.226459,10.7355511 156.881412,12.7943351 156.881412,14.8531192 C156.881412,16.8744707 155.702498,18.9145385 153.344669,20.9733226 C150.986841,23.0321066 147.786931,24.7914311 143.74494,26.2512961 L143.74494,26.2512961 C136.4469,28.8715667 127.820243,30.949067 117.864968,32.4837969 L117.864968,32.4837969 C113.710699,37.8366353 107.816128,46.1279201 100.181256,57.3576511 C92.5463831,68.6248146 87.3254776,76.2423154 84.5185392,80.2101537 C81.7490267,84.1405596 77.2766381,91.1591415 71.1013736,101.265899 C64.9261091,111.335225 59.5742132,120.038266 55.0456858,127.375024 C50.5171585,134.749214 45.6892244,142.011107 40.5618836,149.160702 L40.5618836,149.160702 C30.1200727,163.946515 20.8010371,171.339421 12.604777,171.339421 L12.604777,171.339421 C9.16159917,171.339421 6.20495737,170.422326 3.73485156,168.588137 C1.26474576,166.753948 0.029692852,163.778069 0.029692852,159.660501 C0.029692852,155.5055 2.31266943,150.339824 6.87862259,144.163472 C11.4445758,137.98712 14.775476,134.019282 16.8713234,132.259957 C19.0045966,130.538065 20.4267787,129.677119 21.1378698,129.677119 C21.8863867,129.677119 22.2606451,130.145024 22.2606451,131.080835 Z M211.841266,84.4774515 L211.841266,84.4774515 L210.550074,79.1994779 C210.550074,76.204883 211.579285,73.8466395 213.637706,72.1247474 C215.733554,70.4028553 218.353363,69.5419093 221.497134,69.5419093 L221.497134,69.5419093 C227.634973,69.5419093 230.703892,73.4535989 230.703892,81.2769782 L230.703892,81.2769782 C230.703892,86.9292761 227.915667,94.6965068 222.339216,104.57867 C216.80019,114.498266 210.250667,124.08097 202.690647,133.326781 C195.130626,142.572593 187.102782,150.620567 178.607115,157.470703 C170.148874,164.283407 163.636777,167.689758 159.070824,167.689758 C154.467445,167.689758 151.230109,166.454488 149.358817,163.983947 C147.450099,161.475974 146.495739,159.080298 146.495739,156.796919 C146.495739,154.476108 146.608017,152.305027 146.832572,150.283675 L146.832572,150.283675 C147.618515,143.096647 149.583372,136.246512 152.727143,129.733268 L152.727143,129.733268 C144.905141,139.989755 136.503039,149.198135 127.520836,157.358406 C118.538633,165.481245 111.016038,169.542664 104.953051,169.542664 L104.953051,169.542664 C102.033835,169.542664 99.6947196,168.681718 97.9357049,166.959826 C96.1766901,165.200501 95.2971828,162.205906 95.2971828,157.976041 C95.2971828,153.783608 97.8234273,145.90408 102.875916,134.337457 C107.89098,122.733402 112.700201,113.412725 117.30358,106.375427 L117.30358,106.375427 C115.619417,107.423535 114.141096,107.947589 112.868617,107.947589 C111.596139,107.947589 110.211382,107.236373 108.714348,105.81394 C107.217315,104.391508 106.468798,103.268535 106.468798,102.445021 C106.468798,101.65894 107.011472,100.498534 108.096822,98.9638045 C109.219597,97.4290746 113.430005,93.6296823 120.728045,87.5656276 C128.026085,81.5390052 133.041148,78.5256941 135.773235,78.5256941 C138.467896,78.5256941 141.031566,79.0497482 143.464246,80.0978564 C145.934352,81.1085322 147.169405,82.5122486 147.169405,84.3090056 C147.169405,86.1057625 142.07949,96.5494124 131.89966,115.639955 C121.757256,134.693065 116.686053,145.024418 116.686053,146.634013 L116.686053,146.634013 C116.686053,146.858607 116.760905,146.970905 116.910609,146.970905 L116.910609,146.970905 C118.445068,146.970905 126.098654,139.147525 139.871365,123.500767 C153.644076,107.854008 164.478858,94.9959662 172.375712,84.9266408 L172.375712,84.9266408 C173.461061,83.0924514 175.107798,82.1753567 177.315923,82.1753567 L177.315923,82.1753567 L178.270282,82.287654 L184.333269,81.0523836 C185.268916,81.0523836 186.204562,81.4267079 187.140208,82.1753567 C188.038428,82.886573 188.487538,83.5416406 188.487538,84.1405596 C188.487538,84.7394786 187.196347,87.3784654 184.613963,92.05752 C181.994154,96.7365746 177.765033,105.57063 171.926602,118.559685 C166.08817,131.586173 163.168954,140.738404 163.168954,146.016378 L163.168954,146.016378 C163.168954,147.326513 163.636777,147.98158 164.572423,147.98158 L164.572423,147.98158 C167.341935,147.98158 173.142942,142.946918 181.975441,132.877592 C190.770515,122.845699 197.956277,113.206847 203.532728,103.961035 C209.071753,94.7526554 211.841266,88.2581276 211.841266,84.4774515 Z M293.635451,45.5102849 L293.635451,45.5102849 C293.635451,49.7027178 291.689307,53.8951507 287.797019,58.0875836 C283.942157,62.2800165 279.918879,64.376233 275.727184,64.376233 C271.498064,64.376233 269.383503,62.1864354 269.383503,57.8068403 C269.383503,53.4272452 271.236083,49.2535285 274.941242,45.2856902 C278.6464,41.2804195 282.725817,39.2777841 287.179493,39.2777841 L287.179493,39.2777841 C289.163063,39.2777841 290.734948,39.8205545 291.89515,40.9060951 C293.055351,42.0290682 293.635451,43.5637981 293.635451,45.5102849 Z M275.895601,141.299891 L275.895601,141.299891 C275.895601,143.470972 275.671045,145.043134 275.221935,146.016378 L275.221935,146.016378 C271.629054,153.315703 265.921613,159.211312 258.099611,163.703204 C250.277609,168.195096 243.484818,170.441043 237.721238,170.441043 C231.957658,170.441043 226.98002,168.513272 222.788326,164.657731 C218.634057,160.764758 216.556922,156.815636 216.556922,152.810365 C216.556922,148.767662 218.559205,142.909485 222.563771,135.235836 C226.605762,127.562186 230.62904,120.468739 234.633606,113.955495 C238.675597,107.442251 240.696593,103.923602 240.696593,103.399548 C240.696593,102.838062 239.948076,101.752521 238.451042,100.142926 C236.954008,98.5333315 236.205491,97.3542098 236.205491,96.605561 C236.205491,95.8194799 237.721238,93.7981283 240.752732,90.5415063 C243.784225,87.2848843 247.470671,84.0656947 251.812069,80.8839376 C256.153467,77.7021805 259.484367,76.1113019 261.80477,76.1113019 C264.087746,76.1113019 266.146168,77.1406939 267.980034,79.1994779 C269.813901,81.258262 270.730834,83.1298838 270.730834,84.8143434 C270.730834,86.4988031 262.029325,102.314008 244.626307,132.259957 L244.626307,132.259957 C244.401752,132.709146 243.802938,133.68239 242.829866,135.179687 C241.819368,136.676985 241.052138,137.930971 240.528176,138.941647 C239.966789,139.91489 239.330549,141.094012 238.619458,142.479012 L238.619458,142.479012 C237.122425,145.398742 236.373908,147.850567 236.373908,149.834486 L236.373908,149.834486 C236.373908,152.305027 238.058071,153.540297 241.426397,153.540297 C244.794723,153.540297 248.294039,152.398608 251.924346,150.115229 C255.554653,147.794418 258.679712,145.249013 261.299521,142.479012 L261.299521,142.479012 C268.148451,135.104822 272.059451,131.417727 273.032523,131.417727 L273.032523,131.417727 C274.941242,131.417727 275.895601,134.711782 275.895601,141.299891 Z M358.644145,1.32129326 C362.162175,1.32129326 365.249807,2.36940149 367.907042,4.46561795 C370.601703,6.56183441 371.949033,9.65001044 371.949033,13.730146 C371.949033,17.8102817 369.666057,24.2299446 365.100103,32.9891348 C360.571576,41.7108925 355.126116,50.6198125 348.763722,59.7158946 C342.438754,68.8494092 335.252992,78.5256941 327.206435,88.7447493 L327.206435,88.7447493 C314.481647,104.990427 302.262109,119.570361 290.547819,132.484552 L290.547819,132.484552 C290.472967,133.38293 290.173561,135.011241 289.649599,137.369485 C289.088211,139.765161 288.807517,142.160837 288.807517,144.556513 C288.807517,146.989621 289.930293,149.160702 292.175843,151.069757 C294.383968,153.016243 297.134768,153.989487 300.428242,153.989487 C303.721717,153.989487 307.258459,152.829081 311.03847,150.50827 C314.781054,148.150026 318.037103,145.548472 320.806615,142.703607 L320.806615,142.703607 C328.142081,135.179687 332.689321,131.417727 334.448336,131.417727 C336.169925,131.417727 337.030719,134.07543 337.030719,139.390836 L337.030719,139.390836 L337.030719,141.580634 C337.030719,144.462931 336.52547,146.559148 335.514973,147.869283 L335.514973,147.869283 C329.377134,155.393203 322.472065,161.008068 314.799767,164.71388 C307.127469,168.382259 299.848142,170.216448 292.961786,170.216448 C286.112856,170.216448 280.891951,168.120231 277.29907,163.927799 C273.706189,159.735366 271.909748,153.97077 271.909748,146.634013 L271.909748,146.634013 C271.909748,132.372254 275.727184,115.621239 283.362057,96.3809664 C290.996929,77.1032615 299.604874,60.7078542 309.18589,47.1947445 L309.18589,47.1947445 C330.780603,16.6124437 347.266688,1.32129326 358.644145,1.32129326 L358.644145,1.32129326 Z M353.703934,19.5696062 L353.703934,19.5696062 C353.703934,18.4466331 353.348388,17.8851465 352.637297,17.8851465 L352.637297,17.8851465 C350.054914,17.8851465 343.318261,25.2031879 332.42734,39.8392707 C321.536419,54.4753535 313.676992,66.1355575 308.849058,74.8198828 C303.983698,83.5042082 299.380319,94.4344797 295.038921,107.610697 L295.038921,107.610697 C303.684291,97.3542098 315.623136,81.3892755 330.855455,59.7158946 C346.087774,38.0425137 353.703934,24.6604176 353.703934,19.5696062 Z M397.043063,45.5102849 L397.043063,45.5102849 C397.043063,49.7027178 395.096919,53.8951507 391.204631,58.0875836 C387.349769,62.2800165 383.307777,64.376233 379.078657,64.376233 C374.886962,64.376233 372.791115,62.1864354 372.791115,57.8068403 C372.791115,53.4272452 374.643694,49.2535285 378.348853,45.2856902 C382.016586,41.2804195 386.096003,39.2777841 390.587104,39.2777841 L390.587104,39.2777841 C392.533248,39.2777841 394.105134,39.8205545 395.302761,40.9060951 C396.462962,42.0290682 397.043063,43.5637981 397.043063,45.5102849 Z M379.247073,141.299891 L379.247073,141.299891 C379.247073,143.470972 379.041231,145.043134 378.629547,146.016378 L378.629547,146.016378 C375.036665,153.315703 369.329224,159.211312 361.507222,163.703204 C353.685221,168.195096 346.89243,170.441043 341.128849,170.441043 C335.327843,170.441043 330.350206,168.513272 326.195937,164.657731 C322.041668,160.764758 319.964534,156.815636 319.964534,152.810365 C319.964534,148.767662 321.966816,142.909485 325.971382,135.235836 C330.013373,127.562186 334.036652,120.468739 338.041217,113.955495 C342.045783,107.442251 344.048065,103.923602 344.048065,103.399548 C344.048065,102.838062 343.299548,101.752521 341.802515,100.142926 C340.305481,98.5333315 339.556964,97.3542098 339.556964,96.605561 C339.556964,95.8194799 341.072711,93.7981283 344.104204,90.5415063 C347.135698,87.2848843 350.840856,84.0656947 355.21968,80.8839376 C359.561078,77.7021805 362.873266,76.1113019 365.156242,76.1113019 C367.476645,76.1113019 369.553779,77.1406939 371.387646,79.1994779 C373.221512,81.258262 374.138445,83.1298838 374.138445,84.8143434 C374.138445,86.4988031 365.436936,102.314008 348.033918,132.259957 L348.033918,132.259957 C347.809363,132.709146 347.210549,133.68239 346.237477,135.179687 C345.226979,136.676985 344.45975,137.930971 343.935788,138.941647 C343.3744,139.91489 342.719448,141.094012 341.970931,142.479012 L341.970931,142.479012 C340.511323,145.398742 339.781519,147.850567 339.781519,149.834486 L339.781519,149.834486 C339.781519,152.305027 341.465682,153.540297 344.834008,153.540297 C348.202334,153.540297 351.701651,152.398608 355.331958,150.115229 C358.924839,147.794418 362.049897,145.249013 364.707132,142.479012 L364.707132,142.479012 C371.556062,135.104822 375.467063,131.417727 376.440135,131.417727 L376.440135,131.417727 C378.311427,131.417727 379.247073,134.711782 379.247073,141.299891 Z M405.295462,93.0681958 C412.368946,88.201979 419.292728,84.4587353 426.066806,81.8384647 C432.87831,79.2181942 438.77288,77.9080589 443.750518,77.9080589 C448.728155,77.9080589 451.909352,79.3304915 453.294109,82.1753567 L453.294109,82.1753567 C456.138473,78.8813022 459.675215,77.1219777 463.904336,76.8973831 L463.904336,76.8973831 C465.139389,76.8225182 466.673848,76.7850858 468.507715,76.7850858 C470.341581,76.7850858 471.48307,77.0283966 471.93218,77.5150183 C472.38129,77.9642075 472.774261,78.862586 473.111094,80.2101537 C473.485352,81.520289 473.709907,82.2502215 473.784759,82.3999513 C473.859611,82.549681 473.897037,82.7742756 473.897037,83.0737351 C473.897037,83.4106271 473.709907,83.8223839 473.335649,84.3090056 C472.96139,84.7956272 472.549706,85.2448165 472.100596,85.6565733 C471.61406,86.1057625 471.333366,86.3677896 471.258514,86.4426544 L471.258514,86.4426544 C455.090549,109.613333 438.567038,136.040633 421.687982,165.724555 L421.687982,165.724555 C439.091,150.302392 454.660152,139.22239 468.395437,132.484552 L468.395437,132.484552 C469.293658,132.072795 470.135739,131.866916 470.921682,131.866916 L470.921682,131.866916 C472.081883,131.866916 472.849113,132.615565 473.223371,134.112863 C473.59763,135.61016 473.784759,137.743809 473.784759,140.513809 C473.784759,143.28381 473.616343,145.005702 473.27951,145.679486 C472.942678,146.315837 471.239802,147.625972 468.170882,149.609891 C465.101963,151.593811 461.11611,154.157933 456.213325,157.302257 C451.347965,160.446582 446.164485,163.909082 440.662886,167.689758 L440.662886,167.689758 C427.526414,176.823273 416.710345,186.443409 408.214678,196.550167 L408.214678,196.550167 C397.248905,209.763817 389.389477,220.432062 384.636395,228.554901 L384.636395,228.554901 C382.87738,231.699225 379.920738,233.271388 375.766469,233.271388 L375.766469,233.271388 C367.495358,233.271388 363.359802,229.359698 363.359802,221.536319 L363.359802,221.536319 C363.359802,213.56321 367.270803,205.421655 375.092804,197.111654 L375.092804,197.111654 C380.931236,190.897869 386.301845,185.807058 391.204631,181.83922 C396.107417,177.908814 398.783364,175.681584 399.232475,175.15753 L399.232475,175.15753 C404.621796,167.034691 411.957262,155.524216 421.238872,140.626107 L421.238872,140.626107 C413.379444,148.898675 405.725859,155.468068 398.278116,160.334285 C390.867798,165.237934 385.328773,167.689758 381.66104,167.689758 L381.66104,167.689758 C370.508138,167.689758 364.931687,162.898407 364.931687,153.315703 L364.931687,153.315703 C364.931687,145.716918 366.859118,138.043269 370.71398,130.294754 C374.606268,122.54624 379.583906,115.621239 385.646893,109.519752 C391.70988,103.418265 398.259403,97.9344125 405.295462,93.0681958 Z M447.006567,90.260763 L447.006567,90.260763 C438.548325,92.0949524 430.595333,95.1082636 423.14759,99.3006965 C415.662421,103.530562 409.524582,108.04117 404.734074,112.832522 C399.90614,117.623874 395.733158,122.527523 392.215129,127.54347 L392.215129,127.54347 C385.62818,136.976444 382.334705,144.294485 382.334705,149.497594 L382.334705,149.497594 C382.334705,150.732865 382.652825,151.3505 383.289064,151.3505 C383.887878,151.3505 385.272634,150.695432 387.443333,149.385297 C389.614032,148.075162 392.664239,145.829215 396.593953,142.647458 C400.523666,139.465701 404.90249,135.685025 409.730424,131.30543 L409.730424,131.30543 C420.920752,120.974077 433.346133,107.292522 447.006567,90.260763 Z M561.585793,133.607525 L561.585793,133.607525 C562.109755,136.976444 562.371735,139.615431 562.371735,141.524485 C562.371735,143.470972 562.034903,145.155432 561.361238,146.577864 C560.650147,148.000297 559.115687,150.021648 556.757859,152.641919 C554.362605,155.224757 551.51824,157.826311 548.224766,160.446582 L548.224766,160.446582 C540.178209,166.810096 531.963236,169.991853 523.579847,169.991853 L523.579847,169.991853 C511.491298,169.991853 505.447024,164.657731 505.447024,153.989487 L505.447024,153.989487 C505.447024,144.706242 513.531007,126.214619 529.698972,98.5146153 L529.698972,98.5146153 C530.297786,97.4665071 530.70947,96.7365746 530.934025,96.3248178 L530.934025,96.3248178 C525.282723,100.255224 514.504079,111.017049 498.598095,128.610294 C482.729536,146.20354 472.156735,158.649825 466.879691,165.94915 L466.879691,165.94915 C466.43058,166.622934 465.326518,167.352866 463.567503,168.138948 C461.808488,168.962461 460.442445,169.374218 459.469373,169.374218 C458.496301,169.374218 457.429665,169.056042 456.269463,168.419691 C455.146688,167.78334 454.435597,167.465164 454.13619,167.465164 L454.13619,167.465164 C453.200544,167.465164 452.732721,167.165704 452.732721,166.566785 C452.732721,165.930434 454.023913,162.561515 456.606296,156.460027 C459.226105,150.35854 462.65057,142.778472 466.879691,133.719822 L466.879691,133.719822 C478.481703,108.714954 495.772443,76.1674506 518.751912,36.0773108 L518.751912,36.0773108 C526.798469,22.040147 533.086011,12.101835 537.614539,6.26237491 L537.614539,6.26237491 C540.833161,2.10737443 546.241196,0.0298741945 553.838643,0.0298741945 L553.838643,0.0298741945 C555.447954,0.0298741945 556.364887,0.497779654 556.589442,1.43359057 C556.776572,2.40683393 556.870136,3.43622594 556.870136,4.52176661 C556.870136,5.60730727 556.664294,6.71156416 556.25261,7.83453726 L556.25261,7.83453726 L544.519607,26.1389988 C521.278157,62.41103 503.762861,92.4505605 491.97372,116.25759 L491.97372,116.25759 C503.388603,102.370156 514.466653,91.6644794 525.207871,84.1405596 L525.207871,84.1405596 C531.869671,79.3866401 536.866022,77.0096804 540.196922,77.0096804 C543.490396,77.0096804 546.503177,77.5337345 549.235264,78.5818427 C551.929925,79.6673834 553.277255,82.2127891 553.277255,86.2180598 L553.277255,86.2180598 C553.277255,87.6779249 550.900714,93.086912 546.147631,102.445021 L546.147631,102.445021 C531.888384,130.519349 524.758761,146.109959 524.758761,149.216851 C524.758761,152.323743 526.049952,153.877189 528.632336,153.877189 L528.632336,153.877189 C532.337494,153.877189 538.063649,150.264959 545.810799,143.040499 L545.810799,143.040499 C551.649231,137.537931 555.335677,134.019282 556.870136,132.484552 L556.870136,132.484552 C557.768356,131.8482 558.573012,131.530025 559.284103,131.530025 L559.284103,131.530025 C560.706285,131.530025 561.473515,132.222525 561.585793,133.607525 Z M623.675271,25.3529177 L628.840037,24.6791338 L633.331139,25.8021069 C633.967378,25.8021069 634.547479,26.1202826 635.071441,26.756634 C635.595402,27.4304179 635.857383,28.0667693 635.857383,28.6656883 C635.857383,29.2271749 635.090153,30.7993372 633.555694,33.3821753 C632.021234,35.927581 630.206081,38.8285949 628.110233,42.0852169 C626.014386,45.3418389 624.891611,47.1198796 624.741907,47.4193391 L624.741907,47.4193391 C630.468062,46.9701499 634.510053,46.7455553 636.867881,46.7455553 C639.263135,46.7455553 640.89116,46.9140012 641.751954,47.2508932 C642.650174,47.5877851 643.660672,48.5048798 644.783447,50.0021773 C645.906223,51.4994747 646.954146,52.6224478 647.927218,53.3710966 C648.862865,54.1571777 649.330688,55.3175833 649.330688,56.8523132 C649.330688,58.3870431 648.395042,59.6784622 646.523749,60.7265704 C644.652457,61.7746786 642.668887,62.41103 640.57304,62.6356247 L640.57304,62.6356247 C623.619132,64.3200843 614.26267,65.1997466 612.503656,65.2746115 L612.503656,65.2746115 C606.552946,74.3332612 598.263121,88.464006 587.634181,107.666846 C577.005241,126.869686 571.372651,138.885498 570.736412,143.714283 L570.736412,143.714283 C570.437005,145.885364 570.287302,147.663405 570.287302,149.048405 L570.287302,149.048405 C570.287302,151.89327 571.784336,153.315703 574.778403,153.315703 C577.772471,153.315703 581.103371,152.174013 584.771104,149.890635 C588.401411,147.569824 591.751024,145.06185 594.819944,142.366715 L594.819944,142.366715 C603.016204,135.06739 607.413741,131.417727 608.012554,131.417727 L608.012554,131.417727 C609.883846,131.417727 610.819493,134.711782 610.819493,141.299891 L610.819493,141.299891 C610.819493,144.855972 609.191468,148.056445 605.93542,150.901311 L605.93542,150.901311 C598.525102,157.264825 592.293699,162.056177 587.24121,165.275366 C582.226147,168.494556 577.19237,170.104151 572.139881,170.104151 L572.139881,170.104151 C571.054532,170.104151 570.025321,169.991853 569.052249,169.767259 L569.052249,169.767259 C563.213817,168.681718 558.928558,166.548069 556.196471,163.366312 C553.464384,160.184555 552.098341,155.898541 552.098341,150.50827 C552.135767,145.080567 553.745078,138.511174 556.926275,130.800092 C560.107472,123.08901 564.112037,114.891306 568.939971,106.206981 L568.939971,106.206981 C576.836825,92.0200875 584.733678,78.7128563 592.630532,66.2852873 L592.630532,66.2852873 L588.476263,66.7906252 C579.980596,67.7638685 575.040384,68.2504902 573.655628,68.2504902 L573.655628,68.2504902 L572.701269,68.2504902 C570.567996,68.2504902 568.509574,67.8200172 566.526004,66.9590711 C564.57986,66.1355575 563.606788,65.1061655 563.606788,63.8708951 C563.606788,62.5981922 564.13075,61.381638 565.178674,60.2212325 C566.226598,59.060827 566.862837,58.1437323 567.087392,57.4699484 L567.087392,57.4699484 C567.611354,55.8603536 569.538785,54.0823129 572.869685,52.1358262 C576.200585,50.151907 578.689404,49.1037988 580.336141,48.9915015 C582.020304,48.8792042 583.648329,48.7856231 585.220214,48.7107582 C586.7921,48.6358933 588.551114,48.5610284 590.497258,48.4861636 C592.443402,48.4112987 593.921723,48.3364338 594.932221,48.261569 L594.932221,48.261569 L604.812644,47.8123797 C610.950483,38.6040003 615.179604,32.6896753 617.500006,30.0694047 C619.782983,27.4491341 621.1116,26.0079853 621.485859,25.7459582 C621.860117,25.4839312 622.589921,25.3529177 623.675271,25.3529177 L623.675271,25.3529177 Z"></path>
            </g>
        </g>
    </g>
</svg>